# xmcd
#
# Track frame offsets: 
#        150
#        15137
#        31575
#        46674
#        63042
#        78093
#        93993
#        109875
#        125186
#        139647
#        152899
#        168731
#        182621
#        196787
#        213374
#        230652
#
# Disc length: 3274 seconds
#
# Revision: 3
# Processed by: cddbd v1.5.2PL0 Copyright (c) Steve Scherf et al.
# Submitted via: ExactAudioCopyFreeDBPlugin 1.0
#
DISCID=c20cc810
DTITLE=Linda Feller - Liebe ist wie ein Haus
DYEAR=2007
DGENRE=Country
TTITLE0=Ich führ' Buch über jede Träne
TTITLE1=Solang' ich aufwach' neben Dir
TTITLE2=Mit mir machst Du keinen Fehler
TTITLE3=Ein verliebtes Mädchen
TTITLE4=Immer, wenn mein Herz schlägt
TTITLE5=Pro Woche zweimal Sonntag
TTITLE6=Liebe ist wie ein Haus
TTITLE7=Du bist immer bei mir
TTITLE8=Mein Make-up von gestern
TTITLE9=Ich tanz' heut' Nacht meine Erinnerung fort
TTITLE10=Dann bist Du der Mann für mich
TTITLE11=Eine Prise Liebe
TTITLE12=Ich glaub', ich bleibe ...
TTITLE13=Hab' mich einfach lieb
TTITLE14=Wie der Mond und die Sterne
TTITLE15=Mit mir machst Du keinen Fehler (Duett mit Dirk Daniels)
EXTD=
EXTT0=
EXTT1=
EXTT2=
EXTT3=
EXTT4=
EXTT5=
EXTT6=
EXTT7=
EXTT8=
EXTT9=
EXTT10=
EXTT11=
EXTT12=
EXTT13=
EXTT14=
EXTT15=
PLAYORDER=
